<?xml version="1.0" encoding="utf-8"?>
<!-- Generator: Adobe Illustrator 24.1.3, SVG Export Plug-In . SVG Version: 6.00 Build 0)  -->
<svg version="1.1" id="Layer_1" xmlns="http://www.w3.org/2000/svg" xmlns:xlink="http://www.w3.org/1999/xlink" x="0px" y="0px"
	 viewBox="0 0 1224 792" style="enable-background:new 0 0 1224 792;" xml:space="preserve">
<style type="text/css">
	.st0{fill:none;stroke:#E30613;}
	.st1{fill:none;stroke:#0069B4;stroke-miterlimit:10;}
	.st2{fill:none;stroke:#0069B4;}
	.st3{fill:none;stroke:#E20613;}
</style>
<g>
	<path class="st0" d="M1142.4,14v289.1h-102.1v-17h-85v17H853.2V14H1142.4z"/>
	<path class="st0" d="M1074.3,22.5h34V31h-34V22.5z"/>
	<path class="st0" d="M887.2,22.5h34V31h-34V22.5z"/>
	<path class="st0" d="M1058.7,130.2h8.5v34h-8.5V130.2z"/>
	<path class="st0" d="M1125.3,220.2h8.5v17h-8.5V220.2z"/>
	<path class="st0" d="M1125.3,57.2h8.5v17h-8.5V57.2z"/>
	<path class="st0" d="M861.7,130.2h8.5v34h-8.5V130.2z"/>
	<path class="st0" d="M1058.8,65.1c-0.4,2.9,2,5.3,4.9,4.9c1.8-0.3,3.3-1.7,3.5-3.5c0.4-2.9-2-5.3-4.9-4.9
		C1060.5,61.8,1059.1,63.3,1058.8,65.1z"/>
	<path class="st0" d="M861.8,65.1c-0.4,2.9,2,5.3,4.9,4.9c1.8-0.3,3.3-1.7,3.5-3.5c0.4-2.9-2-5.3-4.9-4.9
		C863.5,61.8,862,63.3,861.8,65.1z"/>
	<path class="st0" d="M1058.8,228.1c-0.4,2.9,2,5.3,4.9,4.9c1.8-0.3,3.3-1.7,3.5-3.5c0.4-2.9-2-5.3-4.9-4.9
		C1060.5,224.8,1059.1,226.3,1058.8,228.1z"/>
	<path class="st0" d="M861.8,228.1c-0.4,2.9,2,5.3,4.9,4.9c1.8-0.3,3.3-1.7,3.5-3.5c0.4-2.9-2-5.3-4.9-4.9
		C863.5,224.8,862,226.3,861.8,228.1z"/>
	<path class="st0" d="M884.4,269.3c-5-0.9-9.3,3.4-8.3,8.3c0.5,2.8,2.8,5,5.6,5.6c5,0.9,9.3-3.4,8.3-8.3
		C889.4,272,887.2,269.8,884.4,269.3z"/>
	<path class="st0" d="M297.6,404.2c0-1.6,1.3-2.8,2.8-2.8h8.5c1.6,0,2.8,1.3,2.8,2.8v8.5c0,1.6-1.3,2.8-2.8,2.8h-8.5
		c-1.6,0-2.8-1.3-2.8-2.8V404.2z"/>
	<path class="st0" d="M274.9,404.2c0-1.6,1.3-2.8,2.8-2.8h8.5c1.6,0,2.8,1.3,2.8,2.8v8.5c0,1.6-1.3,2.8-2.8,2.8h-8.5
		c-1.6,0-2.8-1.3-2.8-2.8V404.2z"/>
	<path class="st0" d="M252.2,404.2c0-1.6,1.3-2.8,2.8-2.8h8.5c1.6,0,2.8,1.3,2.8,2.8v8.5c0,1.6-1.3,2.8-2.8,2.8H255
		c-1.6,0-2.8-1.3-2.8-2.8L252.2,404.2z"/>
	<path class="st0" d="M297.6,381.5c0-1.6,1.3-2.8,2.8-2.8h8.5c1.6,0,2.8,1.3,2.8,2.8v8.5c0,1.6-1.3,2.8-2.8,2.8h-8.5
		c-1.6,0-2.8-1.3-2.8-2.8V381.5z"/>
	<path class="st0" d="M274.9,381.5c0-1.6,1.3-2.8,2.8-2.8h8.5c1.6,0,2.8,1.3,2.8,2.8v8.5c0,1.6-1.3,2.8-2.8,2.8h-8.5
		c-1.6,0-2.8-1.3-2.8-2.8V381.5z"/>
	<path class="st0" d="M252.2,381.5c0-1.6,1.3-2.8,2.8-2.8h8.5c1.6,0,2.8,1.3,2.8,2.8v8.5c0,1.6-1.3,2.8-2.8,2.8H255
		c-1.6,0-2.8-1.3-2.8-2.8L252.2,381.5z"/>
	<path class="st0" d="M297.6,358.8c0-1.6,1.3-2.8,2.8-2.8h8.5c1.6,0,2.8,1.3,2.8,2.8v8.5c0,1.6-1.3,2.8-2.8,2.8h-8.5
		c-1.6,0-2.8-1.3-2.8-2.8V358.8z"/>
	<path class="st0" d="M274.9,358.8c0-1.6,1.3-2.8,2.8-2.8h8.5c1.6,0,2.8,1.3,2.8,2.8v8.5c0,1.6-1.3,2.8-2.8,2.8h-8.5
		c-1.6,0-2.8-1.3-2.8-2.8V358.8z"/>
	<path class="st0" d="M252.2,358.8c0-1.6,1.3-2.8,2.8-2.8h8.5c1.6,0,2.8,1.3,2.8,2.8v8.5c0,1.6-1.3,2.8-2.8,2.8H255
		c-1.6,0-2.8-1.3-2.8-2.8L252.2,358.8z"/>
	<path class="st0" d="M467,485.5l0.7-181.8h5.7c1.6,0,2.8-1.3,2.8-2.8v-5.7c0-1.6-1.3-2.8-2.8-2.8h-5.7v-6.2H110.5v6.2h-5.7
		c-0.8,0-1.5,0.3-2,0.8s-0.8,1.3-0.8,2v5.7c0,1.6,1.3,2.8,2.8,2.8h5.7l0.7,181.8h143.4v-2.8h8.5V477H315v5.7h8.5v2.8h141.9H467z"/>
	<path class="st0" d="M269.5,299.9c2.7,0,5,2.2,5,5s-2.2,5-5,5c-2.7,0-5-2.2-5-5S266.8,299.9,269.5,299.9z"/>
	<path class="st0" d="M371,299.9c2.7,0,5,2.2,5,5s-2.2,5-5,5c-2.7,0-5-2.2-5-5S368.2,299.9,371,299.9z"/>
	<path class="st0" d="M362.2,461.7c2.7,0,5,2.2,5,5c0,2.7-2.2,5-5,5c-2.7,0-5-2.2-5-5S359.4,461.7,362.2,461.7z"/>
	<path class="st0" d="M238.7,461.7c2.7,0,5,2.2,5,5c0,2.7-2.2,5-5,5c-2.7,0-5-2.2-5-5C233.8,463.9,236,461.7,238.7,461.7z"/>
	<path class="st0" d="M397.2,342c0,2.3-1.9,4.3-4.3,4.3c-2.3,0-4.3-1.9-4.3-4.3c0-2.3,1.9-4.3,4.3-4.3S397.2,339.6,397.2,342z"/>
	<circle class="st0" cx="239.5" cy="414.1" r="4.3"/>
	<path class="st1" d="M257.9,306.5h-84.8c-1.6,0-2.8,1.3-2.8,2.8v122.4h-2.8v22.7h2.8v7.7c0,1.6,1.3,2.8,2.8,2.8h54"/>
	<path class="st1" d="M358.6,306.5v-6c0-1.6-1.3-2.8-2.8-2.8h-14.2c-1.6,0-2.8,1.3-2.8,2.8v6h-31.2v-10.8c0-3.1-2.5-5.7-5.7-5.7h-12
		c-3.1,0-5.7,2.5-5.7,5.7v10.8h-3.1"/>
	<path class="st1" d="M250.4,465h24.8v3.5h42.5V465h32.9"/>
	<path class="st2" d="M382.7,306.5h24.1c1.6,0,2.8,1.3,2.8,2.8v47.2h19.8v39.7h-19.8v16.9h4.3v45.4h-4.3v3.7c0,1.6-1.3,2.8-2.8,2.8
		h-33"/>
	<path class="st0" d="M467.7,22.5H306.1V14h-34v8.5l-161.6,1.3v29.5h14.2V48h8.5v5.3h7.1v7.9h-7.1v5.2h-8.5v-5.2h-14.2v60.5H102v34
		h8.5v60.6h14.2V211h8.5v5.3h7.1v7.9h-7.1v5.2h-8.5v-5.2h-14.2v56.3h357.2v-56.3h-14.2v5.2H445v-5.2h-7.1v-7.9h7.1V211h8.5v5.3h14.2
		v-60.6h8.5v-34h-8.5V61.2h-14.2v5.2H445v-5.2h-7.1v-7.9h7.1V48h8.5v5.3h14.2V22.5z"/>
	<path class="st0" d="M242.4,175.6c-2.8-6.7-9.3-11.3-17-11.3s-14.2,4.7-17,11.3v14.2c2.8,6.7,9.3,11.3,17,11.3s14.2-4.7,17-11.3
		V175.6z"/>
</g>
<path d="M211.6,141.2c0.1,0.4,0.2,0.6,0.4,0.8s0.5,0.3,0.8,0.3c0.4,0,0.7-0.1,0.9-0.4s0.3-0.7,0.3-1.1s-0.1-0.8-0.3-1.1
	s-0.5-0.4-0.9-0.4c-0.2,0-0.4,0-0.5,0.1c-0.3,0.1-0.5,0.3-0.6,0.5l-1.5-0.1l0.6-4.7h4.7v1.4H212l-0.3,1.9c0.3-0.2,0.5-0.3,0.6-0.3
	c0.2-0.1,0.5-0.1,0.9-0.1c0.7,0,1.3,0.2,1.8,0.7s0.8,1.2,0.8,2.1c0,0.8-0.3,1.5-0.8,2.1s-1.3,0.9-2.3,0.9c-0.8,0-1.5-0.2-2-0.7
	c-0.5-0.4-0.8-1-0.9-1.8L211.6,141.2L211.6,141.2z"/>
<path d="M222.1,134.9h1.9l-2.9,8.6h-1.7l-2.9-8.6h1.9l1.9,6.6L222.1,134.9z"/>
<path d="M230,135c0.6,0.2,1.1,0.6,1.5,1.1c0.3,0.4,0.5,0.9,0.6,1.4s0.2,1,0.2,1.4c0,1.1-0.2,2.1-0.7,2.9c-0.6,1.1-1.6,1.6-2.9,1.6
	H225v-8.6h3.7C229.2,134.9,229.6,134.9,230,135L230,135z M226.7,136.4v5.6h1.7c0.9,0,1.4-0.4,1.8-1.3c0.2-0.5,0.3-1,0.3-1.6
	c0-0.9-0.1-1.6-0.4-2c-0.3-0.5-0.8-0.7-1.6-0.7H226.7z"/>
<path d="M234.3,135.8c0.7-0.7,1.6-1.1,2.7-1.1c1.4,0,2.5,0.5,3.2,1.4c0.4,0.5,0.6,1.1,0.6,1.6H239c-0.1-0.4-0.3-0.7-0.4-0.9
	c-0.3-0.4-0.8-0.6-1.4-0.6s-1.2,0.3-1.5,0.8s-0.6,1.3-0.6,2.2c0,1,0.2,1.7,0.6,2.2s0.9,0.7,1.5,0.7s1.1-0.2,1.4-0.6
	c0.2-0.2,0.3-0.6,0.4-1h1.8c-0.2,0.9-0.5,1.7-1.2,2.3c-0.6,0.6-1.5,0.9-2.4,0.9c-1.2,0-2.2-0.4-2.9-1.2s-1.1-1.9-1.1-3.3
	C233.1,137.7,233.5,136.6,234.3,135.8L234.3,135.8z"/>
<path d="M220,152.6h-3.5c-0.3-2.6-2.5-4.7-5.3-4.7c-2.9,0-5.3,2.4-5.3,5.3s2.4,5.3,5.3,5.3c2.7,0,5-2.1,5.3-4.7h3.5
	c0.3,2.7,2.6,4.8,5.4,4.8c2.1,0,4-1.3,4.9-3.1h-1.6c-0.7,1-1.9,1.6-3.2,1.6c-2.2,0-4-1.8-4-4s1.8-4,4-4c1.3,0,2.5,0.7,3.2,1.6h1.6
	c-0.9-1.8-2.7-3.1-4.9-3.1C222.6,147.7,220.3,149.9,220,152.6L220,152.6z M211.2,157.3c-2.3,0-4.1-1.8-4.1-4.1s1.8-4.1,4.1-4.1
	s4.1,1.8,4.1,4.1C215.3,155.4,213.5,157.3,211.2,157.3z"/>
<path d="M234.2,152.6h-6.6c-0.3-1-1.2-1.8-2.3-1.8c-1.3,0-2.4,1.1-2.4,2.4s1.1,2.4,2.4,2.4c1.1,0,2-0.8,2.3-1.8h6.6
	c0.3,2.6,2.5,4.7,5.3,4.7c2.9,0,5.3-2.4,5.3-5.3s-2.4-5.3-5.3-5.3C236.7,147.9,234.5,149.9,234.2,152.6L234.2,152.6z M243.6,153.2
	c0,2.3-1.8,4.1-4.1,4.1s-4.1-1.8-4.1-4.1s1.8-4.1,4.1-4.1C241.7,149,243.6,150.9,243.6,153.2z"/>
<path d="M208.4,152.3h5.6v1.8h-5.6V152.3z"/>
<path d="M238.6,150.3v2h-2v1.7h2v2h1.7v-2h2v-1.7h-2v-2H238.6z"/>
<path class="st0" d="M168.7,33.8h14.2v28.3h-14.2V33.8z"/>
<path class="st0" d="M191.3,33.8h14.2v28.3h-14.2V33.8z"/>
<path class="st0" d="M214,33.8h14.2v28.3H214V33.8z"/>
<path class="st0" d="M236.7,33.8h14.2v28.3h-14.2V33.8z"/>
<path class="st0" d="M259.4,33.8h14.2v28.3h-14.2L259.4,33.8z"/>
<path class="st0" d="M282,33.8h14.2v28.3H282V33.8z"/>
<path class="st0" d="M304.7,33.8h14.2v28.3h-14.2V33.8z"/>
<path class="st0" d="M327.4,33.8h14.2v28.3h-14.2V33.8z"/>
<path class="st0" d="M350.1,33.8h14.2v28.3h-14.2V33.8z"/>
<path class="st0" d="M372.7,33.8h14.2v28.3h-14.2V33.8z"/>
<path class="st0" d="M395.4,33.8h14.2v28.3h-14.2V33.8z"/>
<path class="st0" d="M691.6,291.8H839v30.8h-14.1v-5.3h-8.5v5.3h-7.1v7.9h7.1v5.2h8.5v-5.2H839V391h8.6v34H839v60.5h-14.1v-5.2h-8.5
	v5.2h-7.1v8h7.1v5.2h8.5v-5.2H839v39.2h-63.7V412.3H686v128.9h8.5v14.2h-68.1v-14.2h8.6V412.3h-89.3v120.4h-63.8v-39.2h14.2v5.2h8.5
	v-5.2h7v-8h-7v-5.2h-8.5v5.2h-14.2V425h-8.5v-34h8.5v-60.5h14.2v5.2h8.5v-5.2h7v-7.9h-7v-5.3h-8.5v5.3h-14.2v-30.8h147.4V306h62.3
	L691.6,291.8z"/>
<path class="st0" d="M481.9,286.1H839v-25.5h8.6v-34H839V73.5h8.6v-34H839V14H677.5v8.5h-34V14H481.9v25.5h-8.5v34h8.5v153.1h-8.5
	v34h8.5V286.1z"/>
<path class="st0" d="M683.1,245.7c0,12.5-10.2,22.7-22.7,22.7s-22.7-10.2-22.7-22.7s10.2-22.7,22.7-22.7
	C673,223.1,683.1,233.2,683.1,245.7z"/>
<path class="st0" d="M514.1,33.4h292.8v162.4H514.1L514.1,33.4z"/>
<path class="st0" d="M853.2,309.8v289.1h102.1v-17h85v17h102.1V309.8L853.2,309.8z"/>
<path class="st0" d="M887.2,318.3h34v8.5h-34V318.3z"/>
<path class="st0" d="M1074.3,318.3h34v8.5h-34V318.3z"/>
<path class="st0" d="M928.3,426h8.5v34h-8.5V426z"/>
<path class="st0" d="M851.7,606h8.5v17h-8.5V606z"/>
<path class="st0" d="M861.7,353h8.5v17h-8.5V353z"/>
<path class="st0" d="M1125.3,426h8.5v34h-8.5V426z"/>
<path class="st0" d="M936.8,360.9c0.4,2.9-2,5.3-4.9,4.9c-1.8-0.3-3.3-1.7-3.5-3.5c-0.4-2.9,2-5.3,4.9-4.9
	C935.1,357.6,936.5,359.1,936.8,360.9z"/>
<path class="st0" d="M1133.8,360.9c0.4,2.9-2,5.3-4.9,4.9c-1.8-0.3-3.3-1.7-3.5-3.5c-0.4-2.9,2-5.3,4.9-4.9
	C1132.1,357.6,1133.5,359.1,1133.8,360.9z"/>
<path class="st0" d="M926.8,613.9c0.4,2.9-2,5.3-4.9,4.9c-1.8-0.3-3.3-1.7-3.5-3.5c-0.4-2.9,2-5.3,4.9-4.9
	C925.1,610.6,926.5,612.1,926.8,613.9z"/>
<path class="st0" d="M1123.8,613.9c0.4,2.9-2,5.3-4.9,4.9c-1.8-0.3-3.3-1.7-3.5-3.5c-0.4-2.9,2-5.3,4.9-4.9
	C1122.1,610.6,1123.5,612.1,1123.8,613.9z"/>
<path class="st0" d="M1101.2,655.1c5-0.9,9.3,3.4,8.3,8.3c-0.5,2.8-2.8,5-5.6,5.6c-5,0.9-9.3-3.4-8.3-8.3
	C1096.2,657.8,1098.4,655.6,1101.2,655.1z"/>
<g>
	<path class="st3" d="M110.5,496.6v26.2h-5.7c-1.6,0-2.8,1.3-2.8,2.8V537c0,1.6,1.3,2.8,2.8,2.8h5.7v146h-5.7
		c-1.6,0-2.8,1.3-2.8,2.8V700c0,1.6,1.3,2.8,2.8,2.8h5.7l0,51.7h357.2v-51.7h5.7c1.6,0,2.8-1.3,2.8-2.8v-11.3c0-1.6-1.3-2.8-2.8-2.8
		h-5.7v-146h5.7c1.6,0,2.8-1.3,2.8-2.8v-11.3c0-1.6-1.3-2.8-2.8-2.8h-5.7v-26.2H110.5z"/>
	<path class="st3" d="M207.5,637"/>
	<path class="st3" d="M207.5,637"/>
	<path class="st3" d="M361.9,638.7"/>
	<path class="st3" d="M361.9,638.7"/>
	<path class="st3" d="M312.4,598.8"/>
	<path class="st3" d="M312.4,598.8"/>
	<path class="st3" d="M289.1,688"/>
	<path class="st3" d="M289.1,688"/>
</g>
</svg>
