<?xml version="1.0" encoding="utf-8"?>
<!-- Generator: Adobe Illustrator 24.1.3, SVG Export Plug-In . SVG Version: 6.00 Build 0)  -->
<svg version="1.1" id="Artwork" xmlns="http://www.w3.org/2000/svg" xmlns:xlink="http://www.w3.org/1999/xlink" x="0px" y="0px"
	 viewBox="0 0 1224 792" style="enable-background:new 0 0 1224 792;" xml:space="preserve">
<style type="text/css">
	.Arched_x0020_Green{fill:url(#SVGID_1_);stroke:#FFFFFF;stroke-width:0.25;stroke-miterlimit:1;}
	.st0{fill:none;stroke:#E30613;}
	.st1{fill:none;stroke:#0069B4;stroke-miterlimit:10;}
	.st2{fill:none;stroke:#0069B4;}
</style>
<linearGradient id="SVGID_1_" gradientUnits="userSpaceOnUse" x1="216" y1="702" x2="216.7071" y2="701.2929">
	<stop  offset="0" style="stop-color:#1DA238"/>
	<stop  offset="0.9831" style="stop-color:#24391D"/>
</linearGradient>
<g>
	<polygon class="st0" points="1132.4,104 1132.4,393.1 1030.3,393.1 1030.3,376.1 945.3,376.1 945.3,393.1 843.2,393.1 843.2,104 	
		"/>
	<rect x="1064.3" y="112.5" class="st0" width="34" height="8.5"/>
	<rect x="877.2" y="112.5" class="st0" width="34" height="8.5"/>
	<rect x="1048.7" y="220.2" class="st0" width="8.5" height="34"/>
	<rect x="1115.3" y="310.2" class="st0" width="8.5" height="17"/>
	<rect x="1115.3" y="147.2" class="st0" width="8.5" height="17"/>
	<rect x="851.7" y="220.2" class="st0" width="8.5" height="34"/>
	<path class="st0" d="M1048.8,155.1c-0.4,2.9,2,5.3,4.9,4.9c1.8-0.3,3.3-1.7,3.5-3.5c0.4-2.9-2-5.3-4.9-4.9
		C1050.5,151.8,1049.1,153.3,1048.8,155.1z"/>
	<path class="st0" d="M851.8,155.1c-0.4,2.9,2,5.3,4.9,4.9c1.8-0.3,3.3-1.7,3.5-3.5c0.4-2.9-2-5.3-4.9-4.9
		C853.5,151.8,852,153.3,851.8,155.1z"/>
	<path class="st0" d="M1048.8,318.1c-0.4,2.9,2,5.3,4.9,4.9c1.8-0.3,3.3-1.7,3.5-3.5c0.4-2.9-2-5.3-4.9-4.9
		C1050.5,314.8,1049.1,316.3,1048.8,318.1z"/>
	<path class="st0" d="M851.8,318.1c-0.4,2.9,2,5.3,4.9,4.9c1.8-0.3,3.3-1.7,3.5-3.5c0.4-2.9-2-5.3-4.9-4.9
		C853.5,314.8,852,316.3,851.8,318.1z"/>
	<path class="st0" d="M874.4,359.3c-5-0.9-9.3,3.4-8.3,8.3c0.5,2.8,2.8,5,5.6,5.6c5,0.9,9.3-3.4,8.3-8.3
		C879.4,362,877.2,359.8,874.4,359.3z"/>
</g>
<g>
	<path class="st0" d="M287.6,494.2c0-1.6,1.3-2.8,2.8-2.8h8.5c1.6,0,2.8,1.3,2.8,2.8v8.5c0,1.6-1.3,2.8-2.8,2.8h-8.5
		c-1.6,0-2.8-1.3-2.8-2.8V494.2z"/>
	<path class="st0" d="M264.9,494.2c0-1.6,1.3-2.8,2.8-2.8h8.5c1.6,0,2.8,1.3,2.8,2.8v8.5c0,1.6-1.3,2.8-2.8,2.8h-8.5
		c-1.6,0-2.8-1.3-2.8-2.8V494.2z"/>
	<path class="st0" d="M242.2,494.2c0-1.6,1.3-2.8,2.8-2.8h8.5c1.6,0,2.8,1.3,2.8,2.8v8.5c0,1.6-1.3,2.8-2.8,2.8H245
		c-1.6,0-2.8-1.3-2.8-2.8V494.2z"/>
	<path class="st0" d="M287.6,471.5c0-1.6,1.3-2.8,2.8-2.8h8.5c1.6,0,2.8,1.3,2.8,2.8v8.5c0,1.6-1.3,2.8-2.8,2.8h-8.5
		c-1.6,0-2.8-1.3-2.8-2.8V471.5z"/>
	<path class="st0" d="M264.9,471.5c0-1.6,1.3-2.8,2.8-2.8h8.5c1.6,0,2.8,1.3,2.8,2.8v8.5c0,1.6-1.3,2.8-2.8,2.8h-8.5
		c-1.6,0-2.8-1.3-2.8-2.8V471.5z"/>
	<path class="st0" d="M242.2,471.5c0-1.6,1.3-2.8,2.8-2.8h8.5c1.6,0,2.8,1.3,2.8,2.8v8.5c0,1.6-1.3,2.8-2.8,2.8H245
		c-1.6,0-2.8-1.3-2.8-2.8V471.5z"/>
	<path class="st0" d="M287.6,448.8c0-1.6,1.3-2.8,2.8-2.8h8.5c1.6,0,2.8,1.3,2.8,2.8v8.5c0,1.6-1.3,2.8-2.8,2.8h-8.5
		c-1.6,0-2.8-1.3-2.8-2.8V448.8z"/>
	<path class="st0" d="M264.9,448.8c0-1.6,1.3-2.8,2.8-2.8h8.5c1.6,0,2.8,1.3,2.8,2.8v8.5c0,1.6-1.3,2.8-2.8,2.8h-8.5
		c-1.6,0-2.8-1.3-2.8-2.8V448.8z"/>
	<path class="st0" d="M242.2,448.8c0-1.6,1.3-2.8,2.8-2.8h8.5c1.6,0,2.8,1.3,2.8,2.8v8.5c0,1.6-1.3,2.8-2.8,2.8H245
		c-1.6,0-2.8-1.3-2.8-2.8V448.8z"/>
	<path class="st0" d="M457,575.5l0.7-181.8l5.7,0c1.6,0,2.8-1.3,2.8-2.8v-5.7c0-1.6-1.3-2.8-2.8-2.8h-5.7v-6.2H100.5v6.2h-5.7
		c-0.8,0-1.5,0.3-2,0.8c-0.5,0.5-0.8,1.3-0.8,2l0,5.7c0,1.6,1.3,2.8,2.8,2.8l5.7,0l0.7,181.8h143.4l0-2.8h8.5V567h51.9v5.7h8.5
		l0,2.8h141.9H457z"/>
	<path class="st0" d="M259.5,389.9c2.7,0,5,2.2,5,5s-2.2,5-5,5c-2.7,0-5-2.2-5-5S256.8,389.9,259.5,389.9z"/>
	<path class="st0" d="M361,389.9c2.7,0,5,2.2,5,5s-2.2,5-5,5c-2.7,0-5-2.2-5-5S358.2,389.9,361,389.9z"/>
	<path class="st0" d="M352.2,551.7c2.7,0,5,2.2,5,5c0,2.7-2.2,5-5,5c-2.7,0-5-2.2-5-5C347.2,553.9,349.4,551.7,352.2,551.7z"/>
	<path class="st0" d="M228.7,551.7c2.7,0,5,2.2,5,5c0,2.7-2.2,5-5,5c-2.7,0-5-2.2-5-5C223.8,553.9,226,551.7,228.7,551.7z"/>
	<path class="st0" d="M387.2,432c0,2.3-1.9,4.3-4.3,4.3c-2.3,0-4.3-1.9-4.3-4.3c0-2.3,1.9-4.3,4.3-4.3
		C385.3,427.7,387.2,429.6,387.2,432z"/>
	<circle class="st0" cx="229.5" cy="504.1" r="4.3"/>
	<path class="st1" d="M247.9,396.5h-84.8c-1.6,0-2.8,1.3-2.8,2.8v122.4h-2.8v22.7h2.8v7.7c0,1.6,1.3,2.8,2.8,2.8h54"/>
	<path class="st1" d="M348.6,396.5v-6c0-1.6-1.3-2.8-2.8-2.8h-14.2c-1.6,0-2.8,1.3-2.8,2.8v6h-31.2v-10.8c0-3.1-2.5-5.7-5.7-5.7h-12
		c-3.1,0-5.7,2.5-5.7,5.7v10.8h-3.1"/>
	<polyline class="st1" points="240.4,555 265.2,555 265.2,558.5 307.7,558.5 307.7,555 340.6,555 	"/>
	<path class="st2" d="M372.7,396.5h24.1c1.6,0,2.8,1.3,2.8,2.8v47.2h19.8v39.7h-19.8v16.9h4.3v45.4h-4.3v3.7c0,1.6-1.3,2.8-2.8,2.8
		h-33"/>
</g>
<g>
	<polygon class="st0" points="457.7,112.5 296.1,112.5 296.1,104 262.1,104 262.1,112.5 100.5,113.8 100.5,143.3 114.7,143.3 
		114.7,138 123.2,138 123.2,143.3 130.3,143.3 130.3,151.2 123.2,151.2 123.2,156.4 114.7,156.4 114.7,151.2 100.5,151.2 
		100.5,211.7 92,211.7 92,245.7 100.5,245.7 100.5,306.3 114.7,306.3 114.7,301 123.2,301 123.2,306.3 130.3,306.3 130.3,314.2 
		123.2,314.2 123.2,319.4 114.7,319.4 114.7,314.2 100.5,314.2 100.5,370.5 457.7,370.5 457.7,314.2 443.5,314.2 443.5,319.4 
		435,319.4 435,314.2 427.9,314.2 427.9,306.3 435,306.3 435,301 443.5,301 443.5,306.3 457.7,306.3 457.7,245.7 466.2,245.7 
		466.2,211.7 457.7,211.7 457.7,151.2 443.5,151.2 443.5,156.4 435,156.4 435,151.2 427.9,151.2 427.9,143.3 435,143.3 435,138 
		443.5,138 443.5,143.3 457.7,143.3 	"/>
	<path class="st0" d="M232.4,265.6c-2.8-6.7-9.3-11.3-17-11.3s-14.2,4.7-17,11.3v14.2c2.8,6.7,9.3,11.3,17,11.3s14.2-4.7,17-11.3
		V265.6z"/>
	<path d="M201.6,231.2c0.1,0.4,0.2,0.6,0.4,0.8c0.2,0.2,0.5,0.3,0.8,0.3c0.4,0,0.7-0.1,0.9-0.4c0.2-0.3,0.3-0.7,0.3-1.1
		c0-0.4-0.1-0.8-0.3-1.1c-0.2-0.3-0.5-0.4-0.9-0.4c-0.2,0-0.4,0-0.5,0.1c-0.3,0.1-0.5,0.3-0.6,0.5l-1.5-0.1l0.6-4.7h4.7v1.4H202
		l-0.3,1.9c0.3-0.2,0.5-0.3,0.6-0.3c0.2-0.1,0.5-0.1,0.9-0.1c0.7,0,1.3,0.2,1.8,0.7c0.5,0.5,0.8,1.2,0.8,2.1c0,0.8-0.3,1.5-0.8,2.1
		c-0.5,0.6-1.3,0.9-2.3,0.9c-0.8,0-1.5-0.2-2-0.7c-0.5-0.4-0.8-1-0.9-1.8H201.6z"/>
	<path d="M212.1,224.9h1.9l-2.9,8.6h-1.7l-2.9-8.6h1.9l1.9,6.6L212.1,224.9z"/>
	<path d="M220,225c0.6,0.2,1.1,0.6,1.5,1.1c0.3,0.4,0.5,0.9,0.6,1.4c0.1,0.5,0.2,1,0.2,1.4c0,1.1-0.2,2.1-0.7,2.9
		c-0.6,1.1-1.6,1.6-2.9,1.6h-3.7v-8.6h3.7C219.2,224.9,219.6,224.9,220,225z M216.7,226.4v5.6h1.7c0.9,0,1.4-0.4,1.8-1.3
		c0.2-0.5,0.3-1,0.3-1.6c0-0.9-0.1-1.6-0.4-2c-0.3-0.5-0.8-0.7-1.6-0.7H216.7z"/>
	<path d="M224.3,225.8c0.7-0.7,1.6-1.1,2.7-1.1c1.4,0,2.5,0.5,3.2,1.4c0.4,0.5,0.6,1.1,0.6,1.6h-1.8c-0.1-0.4-0.3-0.7-0.4-0.9
		c-0.3-0.4-0.8-0.6-1.4-0.6c-0.6,0-1.2,0.3-1.5,0.8s-0.6,1.3-0.6,2.2c0,1,0.2,1.7,0.6,2.2c0.4,0.5,0.9,0.7,1.5,0.7
		c0.6,0,1.1-0.2,1.4-0.6c0.2-0.2,0.3-0.6,0.4-1h1.8c-0.2,0.9-0.5,1.7-1.2,2.3c-0.6,0.6-1.5,0.9-2.4,0.9c-1.2,0-2.2-0.4-2.9-1.2
		c-0.7-0.8-1.1-1.9-1.1-3.3C223.1,227.7,223.5,226.6,224.3,225.8z"/>
	<path d="M210,242.6h-3.5c-0.3-2.6-2.5-4.7-5.3-4.7c-2.9,0-5.3,2.4-5.3,5.3c0,2.9,2.4,5.3,5.3,5.3c2.7,0,5-2.1,5.3-4.7h3.5
		c0.3,2.7,2.6,4.8,5.4,4.8c2.1,0,4-1.3,4.9-3.1h-1.6c-0.7,1-1.9,1.6-3.2,1.6c-2.2,0-4-1.8-4-4s1.8-4,4-4c1.3,0,2.5,0.7,3.2,1.6h1.6
		c-0.9-1.8-2.7-3.1-4.9-3.1C212.6,237.7,210.3,239.9,210,242.6z M201.2,247.3c-2.3,0-4.1-1.8-4.1-4.1c0-2.3,1.8-4.1,4.1-4.1
		c2.3,0,4.1,1.8,4.1,4.1C205.3,245.4,203.5,247.3,201.2,247.3z"/>
	<path d="M224.2,242.6h-6.6c-0.3-1-1.2-1.8-2.3-1.8c-1.3,0-2.4,1.1-2.4,2.4c0,1.3,1.1,2.4,2.4,2.4c1.1,0,2-0.8,2.3-1.8h6.6
		c0.3,2.6,2.5,4.7,5.3,4.7c2.9,0,5.3-2.4,5.3-5.3c0-2.9-2.4-5.3-5.3-5.3C226.7,237.9,224.5,239.9,224.2,242.6z M233.6,243.2
		c0,2.3-1.8,4.1-4.1,4.1c-2.3,0-4.1-1.8-4.1-4.1c0-2.3,1.8-4.1,4.1-4.1C231.7,239,233.6,240.9,233.6,243.2z"/>
	<rect x="198.4" y="242.3" width="5.6" height="1.8"/>
	<polygon points="228.6,240.3 228.6,242.3 226.6,242.3 226.6,244 228.6,244 228.6,246 230.3,246 230.3,244 232.3,244 232.3,242.3 
		230.3,242.3 230.3,240.3 	"/>
	<rect x="158.7" y="123.8" class="st0" width="14.2" height="28.3"/>
	<rect x="181.3" y="123.8" class="st0" width="14.2" height="28.3"/>
	<rect x="204" y="123.8" class="st0" width="14.2" height="28.3"/>
	<rect x="226.7" y="123.8" class="st0" width="14.2" height="28.3"/>
	<rect x="249.4" y="123.8" class="st0" width="14.2" height="28.3"/>
	<rect x="272" y="123.8" class="st0" width="14.2" height="28.3"/>
	<rect x="294.7" y="123.8" class="st0" width="14.2" height="28.3"/>
	<rect x="317.4" y="123.8" class="st0" width="14.2" height="28.3"/>
	<rect x="340.1" y="123.8" class="st0" width="14.2" height="28.3"/>
	<rect x="362.7" y="123.8" class="st0" width="14.2" height="28.3"/>
	<rect x="385.4" y="123.8" class="st0" width="14.2" height="28.3"/>
</g>
<polygon class="st0" points="681.6,381.8 829,381.8 829,412.6 814.9,412.6 814.9,407.3 806.4,407.3 806.4,412.6 799.3,412.6 
	799.3,420.5 806.4,420.5 806.4,425.7 814.9,425.7 814.9,420.5 829,420.5 829,481 837.6,481 837.6,515 829,515 829,575.5 
	814.9,575.5 814.9,570.3 806.4,570.3 806.4,575.5 799.3,575.5 799.3,583.5 806.4,583.5 806.4,588.7 814.9,588.7 814.9,583.5 
	829,583.5 829,622.7 765.3,622.7 765.3,502.3 676,502.3 676,631.2 684.5,631.2 684.5,645.4 616.4,645.4 616.4,631.2 625,631.2 
	625,502.3 535.7,502.3 535.7,622.7 471.9,622.7 471.9,583.5 486.1,583.5 486.1,588.7 494.6,588.7 494.6,583.5 501.6,583.5 
	501.6,575.5 494.6,575.5 494.6,570.3 486.1,570.3 486.1,575.5 471.9,575.5 471.9,515 463.4,515 463.4,481 471.9,481 471.9,420.5 
	486.1,420.5 486.1,425.7 494.6,425.7 494.6,420.5 501.6,420.5 501.6,412.6 494.6,412.6 494.6,407.3 486.1,407.3 486.1,412.6 
	471.9,412.6 471.9,381.8 619.3,381.8 619.3,396 681.6,396 "/>
<g>
	<polygon class="st0" points="471.9,376.1 829,376.1 829,350.6 837.6,350.6 837.6,316.6 829,316.6 829,163.5 837.6,163.5 
		837.6,129.5 829,129.5 829,104 667.5,104 667.5,112.5 633.5,112.5 633.5,104 471.9,104 471.9,129.5 463.4,129.5 463.4,163.5 
		471.9,163.5 471.9,316.6 463.4,316.6 463.4,350.6 471.9,350.6 	"/>
	<path class="st0" d="M673.1,335.7c0,12.5-10.2,22.7-22.7,22.7c-12.5,0-22.7-10.2-22.7-22.7c0-12.5,10.2-22.7,22.7-22.7
		C663,313.1,673.1,323.2,673.1,335.7z"/>
	<rect x="504.1" y="123.4" class="st0" width="292.8" height="162.4"/>
</g>
<g>
	<polygon class="st0" points="843.2,399.8 843.2,688.9 945.3,688.9 945.3,671.9 1030.3,671.9 1030.3,688.9 1132.4,688.9 
		1132.4,399.8 	"/>
	<rect x="877.2" y="408.3" class="st0" width="34" height="8.5"/>
	<rect x="1064.3" y="408.3" class="st0" width="34" height="8.5"/>
	<rect x="918.3" y="516" class="st0" width="8.5" height="34"/>
	<rect x="851.7" y="606" class="st0" width="8.5" height="17"/>
	<rect x="851.7" y="443" class="st0" width="8.5" height="17"/>
	<rect x="1115.3" y="516" class="st0" width="8.5" height="34"/>
	<path class="st0" d="M926.8,450.9c0.4,2.9-2,5.3-4.9,4.9c-1.8-0.3-3.3-1.7-3.5-3.5c-0.4-2.9,2-5.3,4.9-4.9
		C925.1,447.6,926.5,449.1,926.8,450.9z"/>
	<path class="st0" d="M1123.8,450.9c0.4,2.9-2,5.3-4.9,4.9c-1.8-0.3-3.3-1.7-3.5-3.5c-0.4-2.9,2-5.3,4.9-4.9
		C1122.1,447.6,1123.5,449.1,1123.8,450.9z"/>
	<path class="st0" d="M926.8,613.9c0.4,2.9-2,5.3-4.9,4.9c-1.8-0.3-3.3-1.7-3.5-3.5c-0.4-2.9,2-5.3,4.9-4.9
		C925.1,610.6,926.5,612.1,926.8,613.9z"/>
	<path class="st0" d="M1123.8,613.9c0.4,2.9-2,5.3-4.9,4.9c-1.8-0.3-3.3-1.7-3.5-3.5c-0.4-2.9,2-5.3,4.9-4.9
		C1122.1,610.6,1123.5,612.1,1123.8,613.9z"/>
	<path class="st0" d="M1101.2,655.1c5-0.9,9.3,3.4,8.3,8.3c-0.5,2.8-2.8,5-5.6,5.6c-5,0.9-9.3-3.4-8.3-8.3
		C1096.2,657.8,1098.4,655.6,1101.2,655.1z"/>
</g>
</svg>
