<?xml version="1.0" encoding="utf-8"?>
<!-- Generator: Adobe Illustrator 24.1.3, SVG Export Plug-In . SVG Version: 6.00 Build 0)  -->
<svg version="1.1" id="Layer_1" xmlns="http://www.w3.org/2000/svg" xmlns:xlink="http://www.w3.org/1999/xlink" x="0px" y="0px"
	 viewBox="0 0 1224 792" style="enable-background:new 0 0 1224 792;" xml:space="preserve">
<style type="text/css">
	.st0{fill:none;stroke:#E30613;}
	.st1{fill:none;stroke:#E20613;}
</style>
<path class="st0" d="M1142.4,14v289.1h-102.1v-17h-85v17H853.2V14H1142.4z"/>
<path class="st0" d="M1074.3,22.5h34V31h-34V22.5z"/>
<path class="st0" d="M887.2,22.5h34V31h-34V22.5z"/>
<path class="st0" d="M1058.7,130.2h8.5v34h-8.5V130.2z"/>
<path class="st0" d="M1125.3,220.2h8.5v17h-8.5V220.2z"/>
<path class="st0" d="M1125.3,57.2h8.5v17h-8.5V57.2z"/>
<path class="st0" d="M861.7,130.2h8.5v34h-8.5V130.2z"/>
<path class="st0" d="M1058.8,65.1c-0.4,2.9,2,5.3,4.9,4.9c1.8-0.3,3.3-1.7,3.5-3.5c0.4-2.9-2-5.3-4.9-4.9
	C1060.5,61.8,1059.1,63.3,1058.8,65.1z"/>
<path class="st0" d="M861.8,65.1c-0.4,2.9,2,5.3,4.9,4.9c1.8-0.3,3.3-1.7,3.5-3.5c0.4-2.9-2-5.3-4.9-4.9
	C863.5,61.8,862,63.3,861.8,65.1z"/>
<path class="st0" d="M1058.8,228.1c-0.4,2.9,2,5.3,4.9,4.9c1.8-0.3,3.3-1.7,3.5-3.5c0.4-2.9-2-5.3-4.9-4.9
	C1060.5,224.8,1059.1,226.3,1058.8,228.1z"/>
<path class="st0" d="M861.8,228.1c-0.4,2.9,2,5.3,4.9,4.9c1.8-0.3,3.3-1.7,3.5-3.5c0.4-2.9-2-5.3-4.9-4.9
	C863.5,224.8,862,226.3,861.8,228.1z"/>
<path class="st0" d="M884.4,269.3c-5-0.9-9.3,3.4-8.3,8.3c0.5,2.8,2.8,5,5.6,5.6c5,0.9,9.3-3.4,8.3-8.3
	C889.4,272,887.2,269.8,884.4,269.3z"/>
<path class="st0" d="M467,485.5l0.7-181.8h5.7c1.6,0,2.8-1.3,2.8-2.8v-5.7c0-1.6-1.3-2.8-2.8-2.8h-5.7v-6.2H110.5v6.2h-5.7
	c-0.8,0-1.5,0.3-2,0.8s-0.8,1.3-0.8,2v5.7c0,1.6,1.3,2.8,2.8,2.8h5.7l0.7,181.8h143.4v-2.8h8.5V477H315v5.7h8.5v2.8h141.9H467z"/>
<path class="st0" d="M467.7,22.5H306.1V14h-34v8.5l-161.6,1.3v29.5h14.2V48h8.5v5.3h7.1v7.9h-7.1v5.2h-8.5v-5.2h-14.2v60.5H102v34
	h8.5v60.6h14.2V211h8.5v5.3h7.1v7.9h-7.1v5.2h-8.5v-5.2h-14.2v56.3h357.2v-56.3h-14.2v5.2H445v-5.2h-7.1v-7.9h7.1V211h8.5v5.3h14.2
	v-60.6h8.5v-34h-8.5V61.2h-14.2v5.2H445v-5.2h-7.1v-7.9h7.1V48h8.5v5.3h14.2V22.5z"/>
<path class="st0" d="M242.4,175.6c-2.8-6.7-9.3-11.3-17-11.3s-14.2,4.7-17,11.3v14.2c2.8,6.7,9.3,11.3,17,11.3s14.2-4.7,17-11.3
	V175.6z"/>
<path class="st0" d="M168.7,33.8h14.2v28.3h-14.2V33.8z"/>
<path class="st0" d="M191.3,33.8h14.2v28.3h-14.2V33.8z"/>
<path class="st0" d="M214,33.8h14.2v28.3H214V33.8z"/>
<path class="st0" d="M236.7,33.8h14.2v28.3h-14.2V33.8z"/>
<path class="st0" d="M259.4,33.8h14.2v28.3h-14.2L259.4,33.8z"/>
<path class="st0" d="M282,33.8h14.2v28.3H282V33.8z"/>
<path class="st0" d="M304.7,33.8h14.2v28.3h-14.2V33.8z"/>
<path class="st0" d="M327.4,33.8h14.2v28.3h-14.2V33.8z"/>
<path class="st0" d="M350.1,33.8h14.2v28.3h-14.2V33.8z"/>
<path class="st0" d="M372.7,33.8h14.2v28.3h-14.2V33.8z"/>
<path class="st0" d="M395.4,33.8h14.2v28.3h-14.2V33.8z"/>
<path class="st0" d="M691.6,291.8H839v30.8h-14.1v-5.3h-8.5v5.3h-7.1v7.9h7.1v5.2h8.5v-5.2H839V391h8.6v34H839v60.5h-14.1v-5.2h-8.5
	v5.2h-7.1v8h7.1v5.2h8.5v-5.2H839v39.2h-63.7V412.3H686v128.9h8.5v14.2h-68.1v-14.2h8.6V412.3h-89.3v120.4h-63.8v-39.2h14.2v5.2h8.5
	v-5.2h7v-8h-7v-5.2h-8.5v5.2h-14.2V425h-8.5v-34h8.5v-60.5h14.2v5.2h8.5v-5.2h7v-7.9h-7v-5.3h-8.5v5.3h-14.2v-30.8h147.4V306h62.3
	L691.6,291.8z"/>
<path class="st0" d="M481.9,286.1H839v-25.5h8.6v-34H839V73.5h8.6v-34H839V14H677.5v8.5h-34V14H481.9v25.5h-8.5v34h8.5v153.1h-8.5
	v34h8.5V286.1z"/>
<path class="st0" d="M683.1,245.7c0,12.5-10.2,22.7-22.7,22.7s-22.7-10.2-22.7-22.7s10.2-22.7,22.7-22.7
	C673,223.1,683.1,233.2,683.1,245.7z"/>
<path class="st0" d="M514.1,33.4h292.8v162.4H514.1L514.1,33.4z"/>
<g>
	<polygon class="st1" points="110.5,496.6 110.5,522.8 102,522.8 102,539.8 110.5,539.8 110.5,685.8 102,685.8 102,702.8 
		110.5,702.8 110.5,754.6 467.7,754.6 467.7,702.8 476.2,702.8 476.2,685.8 467.7,685.8 467.7,539.8 476.2,539.8 476.2,522.8 
		467.7,522.8 467.7,496.6 	"/>
	<path class="st1" d="M207.5,637"/>
	<path class="st1" d="M207.5,637"/>
	<path class="st1" d="M361.9,638.7"/>
	<path class="st1" d="M361.9,638.7"/>
	<path class="st1" d="M312.4,598.8"/>
	<path class="st1" d="M312.4,598.8"/>
	<path class="st1" d="M289.1,688"/>
	<path class="st1" d="M289.1,688"/>
</g>
<path class="st0" d="M1142.4,315.6v289.1h-102.1v-17h-85v17H853.2V315.6H1142.4z"/>
<path class="st0" d="M921.3,332.6h-34v-8.5h34V332.6z"/>
<path class="st0" d="M1108.4,332.6h-34v-8.5h34V332.6z"/>
<path class="st0" d="M936.9,465.8h-8.5v-34h8.5V465.8z"/>
<path class="st0" d="M870.3,538.8h-8.5v-17h8.5V538.8z"/>
<path class="st0" d="M870.3,375.8h-8.5v-17h8.5V375.8z"/>
<path class="st0" d="M1133.9,465.8h-8.5l0-34h8.5L1133.9,465.8z"/>
<path class="st0" d="M933.3,363.2c-2.9-0.4-5.3,2-4.9,4.9c0.2,1.8,1.7,3.2,3.5,3.5c2.9,0.4,5.3-2,4.9-4.9
	C936.5,364.9,935.1,363.4,933.3,363.2z"/>
<path class="st0" d="M1130.3,363.2c-2.9-0.4-5.3,2-4.9,4.9c0.2,1.8,1.7,3.2,3.5,3.5c2.9,0.4,5.3-2,4.9-4.9
	C1133.6,364.9,1132.1,363.4,1130.3,363.2z"/>
<path class="st0" d="M933.3,526.2c-2.9-0.4-5.3,2-4.9,4.9c0.2,1.8,1.7,3.2,3.5,3.5c2.9,0.4,5.3-2,4.9-4.9
	C936.5,527.9,935.1,526.4,933.3,526.2z"/>
<path class="st0" d="M1130.3,526.2c-2.9-0.4-5.3,2-4.9,4.9c0.2,1.8,1.7,3.2,3.5,3.5c2.9,0.4,5.3-2,4.9-4.9
	C1133.6,527.9,1132.1,526.4,1130.3,526.2z"/>
<path class="st0" d="M1105.6,576.5c-1,4.9,3.3,9.2,8.3,8.3c2.8-0.6,5.1-2.8,5.6-5.6c1-4.9-3.3-9.2-8.3-8.3
	C1108.4,571.4,1106.2,573.6,1105.6,576.5z"/>
</svg>
