0
SECTION
2
HEADER
9
$INSUNITS
70
4
9
$ACADVER
1
AC1014
9
$HANDSEED
5
FFFF
0
ENDSEC
0
SECTION
2
TABLES
0
TABLE
2
VPORT
5
8
100
AcDbSymbolTable
0
ENDTAB
0
TABLE
2
LTYPE
5
5
100
AcDbSymbolTable
0
LTYPE
5
14
100
AcDbSymbolTableRecord
100
AcDbLinetypeTableRecord
2
BYBLOCK
70
0
0
LTYPE
5
15
100
AcDbSymbolTableRecord
100
AcDbLinetypeTableRecord
2
BYLAYER
70
0
0
ENDTAB
0
TABLE
2
LAYER
5
2
100
AcDbSymbolTable
70
2
0
LAYER
5
50
100
AcDbSymbolTableRecord
100
AcDbLayerTableRecord
2
0
70
0
6
CONTINUOUS
0
ENDTAB
0
TABLE
2
STYLE
5
3
100
AcDbSymbolTable
70
1
0
STYLE
5
11
100
AcDbSymbolTableRecord
100
AcDbTextStyleTableRecord
2
STANDARD
70
0
0
ENDTAB
0
TABLE
2
VIEW
5
6
100
AcDbSymbolTable
70
0
0
ENDTAB
0
TABLE
2
UCS
5
7
100
AcDbSymbolTable
70
0
0
ENDTAB
0
TABLE
2
APPID
5
9
100
AcDbSymbolTable
70
2
0
APPID
5
12
100
AcDbSymbolTableRecord
100
AcDbRegAppTableRecord
2
ACAD
70
0
0
ENDTAB
0
TABLE
2
DIMSTYLE
5
A
100
AcDbSymbolTable
70
1
0
ENDTAB
0
TABLE
2
BLOCK_RECORD
5
1
100
AcDbSymbolTable
70
1
0
BLOCK_RECORD
5
1F
100
AcDbSymbolTableRecord
100
AcDbBlockTableRecord
2
*MODEL_SPACE
0
BLOCK_RECORD
5
1B
100
AcDbSymbolTableRecord
100
AcDbBlockTableRecord
2
*PAPER_SPACE
0
ENDTAB
0
ENDSEC
0
SECTION
2
BLOCKS
0
BLOCK
5
20
100
AcDbEntity
100
AcDbBlockBegin
2
*MODEL_SPACE
0
ENDBLK
5
21
100
AcDbEntity
100
AcDbBlockEnd
0
BLOCK
5
1C
100
AcDbEntity
100
AcDbBlockBegin
2
*PAPER_SPACE
0
ENDBLK
5
1D
100
AcDbEntity
100
AcDbBlockEnd
0
ENDSEC
0
SECTION
2
ENTITIES
0
LWPOLYLINE
5
100
100
AcDbEntity
8
0
100
AcDbPolyline
90
4
70
1
43
0.0
10
52.715610846340937
20
-38.266633500286559
10
33.925212733991785
20
-38.266633500286559
10
33.925212733991778
20
-57.057031612635704
10
52.71561084634093
20
-57.057031612635697
0
CIRCLE
5
101
100
AcDbEntity
8
0
100
AcDbCircle
10
17.499999852217471
20
-67.750000000000028
30
0
40
1.4999999999999991
210
8.3793734325463318e-65
220
-5.1308864265141174e-81
230
1
0
CIRCLE
5
102
100
AcDbEntity
8
0
100
AcDbCircle
10
75.499999852217471
20
-67.750000000000028
30
0
40
1.5000000000000036
210
8.3793734325463301e-65
220
-3.0385816786431356e-64
230
1
0
CIRCLE
5
103
100
AcDbEntity
8
0
100
AcDbCircle
10
75.499999852217471
20
-18.750000000000018
30
0
40
1.5000000000000036
210
8.3793734325463301e-65
220
-3.0385816786431356e-64
230
1
0
CIRCLE
5
104
100
AcDbEntity
8
0
100
AcDbCircle
10
17.499999852217471
20
-18.750000000000018
30
0
40
1.4999999999999991
210
8.3793734325463318e-65
220
-5.1308864265141174e-81
230
1
0
LWPOLYLINE
5
105
100
AcDbEntity
8
0
100
AcDbPolyline
90
24
70
1
43
0.0
10
1.499999852217472
20
-75
10
-1.5000003179167796
20
-75
10
-1.5000001477825284
20
-71
10
1.499999852217472
20
-71
10
1.4999998522174751
20
-57.250000000000007
10
17.499999852217467
20
-57.250000000000007
10
17.499999852217471
20
-29.250000000000007
10
1.4999998522174749
20
-29.250000000000007
10
1.4999998522174707
20
-8.5000000000000018
10
52.499999852217478
20
-8.5000000000000053
10
52.499999852217478
20
-10.000000000000009
10
55.499999852217471
20
-10.000000000000009
10
55.499999852217471
20
-11.500000000000004
10
73.499999852217485
20
-11.500000000000004
10
73.499999852217485
20
-10.000000000000018
10
76.499999852217485
20
-10.000000000000018
10
76.499999852217485
20
-8.5000000000000107
10
127.49999985221748
20
-8.5000000000000142
10
127.49999985221748
20
-71.000000000000028
10
130.50000002235174
20
-71.000000000000014
10
130.50000002235174
20
-75.000000000000014
10
127.49999985221748
20
-75.000000000000014
10
127.49999985221748
20
-77.000000000000014
10
1.4999998522174725
20
-77
0
LWPOLYLINE
5
106
100
AcDbEntity
8
0
100
AcDbPolyline
90
4
70
1
43
0.0
10
33.925212733991778
20
-38.266633500286574
10
52.71561084634093
20
-38.266633500286567
10
52.71561084634093
20
-57.057031612635697
10
33.925212733991771
20
-57.057031612635697
0
CIRCLE
5
107
100
AcDbEntity
8
0
100
AcDbCircle
10
17.499999852217471
20
-18.750000000000018
30
0
40
1.4999999999999991
210
0
220
0
230
1
0
CIRCLE
5
108
100
AcDbEntity
8
0
100
AcDbCircle
10
75.499999852217471
20
-18.750000000000018
30
0
40
1.5000000000000036
210
0
220
0
230
1
0
CIRCLE
5
109
100
AcDbEntity
8
0
100
AcDbCircle
10
75.499999852217471
20
-67.750000000000028
30
0
40
1.5000000000000036
210
0
220
0
230
1
0
CIRCLE
5
110
100
AcDbEntity
8
0
100
AcDbCircle
10
17.499999852217471
20
-67.750000000000028
30
0
40
1.4999999999999991
210
0
220
0
230
1
0
LWPOLYLINE
5
111
100
AcDbEntity
8
0
100
AcDbPolyline
90
24
70
1
43
0.0
10
1.499999852217472
20
-75
10
1.4999998522174707
20
-77
10
127.49999985221748
20
-77.000000000000014
10
127.49999985221748
20
-75.000000000000014
10
130.50000002235174
20
-75.000000000000014
10
130.50000002235174
20
-71.000000000000014
10
127.49999985221748
20
-71.000000000000028
10
127.49999985221748
20
-8.5000000000000142
10
76.499999852217485
20
-8.5000000000000107
10
76.499999852217485
20
-10.000000000000018
10
73.499999852217485
20
-10.000000000000018
10
73.499999852217485
20
-11.500000000000004
10
55.499999852217471
20
-11.500000000000004
10
55.499999852217471
20
-10.000000000000009
10
52.499999852217478
20
-10.000000000000016
10
52.499999852217478
20
-8.5000000000000053
10
1.4999998522174707
20
-8.5000000000000053
10
1.4999998522174751
20
-29.250000000000007
10
17.499999852217471
20
-29.250000000000007
10
17.499999852217467
20
-57.250000000000007
10
1.4999998522174751
20
-57.250000000000007
10
1.499999852217472
20
-71
10
-1.5000001477825284
20
-71
10
-1.5000003179167796
20
-75
0
ENDSEC
0
SECTION
2
OBJECTS
0
DICTIONARY
5
C
100
AcDbDictionary
3
ACAD_GROUP
350
D
3
ACAD_MLINESTYLE
350
17
0
DICTIONARY
5
D
100
AcDbDictionary
0
DICTIONARY
5
1A
330
C
100
AcDbDictionary
0
DICTIONARY
5
17
100
AcDbDictionary
0
ENDSEC
0
EOF
