0
SECTION
2
HEADER
9
$INSUNITS
70
4
9
$ACADVER
1
AC1014
9
$HANDSEED
5
FFFF
0
ENDSEC
0
SECTION
2
TABLES
0
TABLE
2
VPORT
5
8
100
AcDbSymbolTable
0
ENDTAB
0
TABLE
2
LTYPE
5
5
100
AcDbSymbolTable
0
LTYPE
5
14
100
AcDbSymbolTableRecord
100
AcDbLinetypeTableRecord
2
BYBLOCK
70
0
0
LTYPE
5
15
100
AcDbSymbolTableRecord
100
AcDbLinetypeTableRecord
2
BYLAYER
70
0
0
ENDTAB
0
TABLE
2
LAYER
5
2
100
AcDbSymbolTable
70
2
0
LAYER
5
50
100
AcDbSymbolTableRecord
100
AcDbLayerTableRecord
2
0
70
0
6
CONTINUOUS
0
ENDTAB
0
TABLE
2
STYLE
5
3
100
AcDbSymbolTable
70
1
0
STYLE
5
11
100
AcDbSymbolTableRecord
100
AcDbTextStyleTableRecord
2
STANDARD
70
0
0
ENDTAB
0
TABLE
2
VIEW
5
6
100
AcDbSymbolTable
70
0
0
ENDTAB
0
TABLE
2
UCS
5
7
100
AcDbSymbolTable
70
0
0
ENDTAB
0
TABLE
2
APPID
5
9
100
AcDbSymbolTable
70
2
0
APPID
5
12
100
AcDbSymbolTableRecord
100
AcDbRegAppTableRecord
2
ACAD
70
0
0
ENDTAB
0
TABLE
2
DIMSTYLE
5
A
100
AcDbSymbolTable
70
1
0
ENDTAB
0
TABLE
2
BLOCK_RECORD
5
1
100
AcDbSymbolTable
70
1
0
BLOCK_RECORD
5
1F
100
AcDbSymbolTableRecord
100
AcDbBlockTableRecord
2
*MODEL_SPACE
0
BLOCK_RECORD
5
1B
100
AcDbSymbolTableRecord
100
AcDbBlockTableRecord
2
*PAPER_SPACE
0
ENDTAB
0
ENDSEC
0
SECTION
2
BLOCKS
0
BLOCK
5
20
100
AcDbEntity
100
AcDbBlockBegin
2
*MODEL_SPACE
0
ENDBLK
5
21
100
AcDbEntity
100
AcDbBlockEnd
0
BLOCK
5
1C
100
AcDbEntity
100
AcDbBlockBegin
2
*PAPER_SPACE
0
ENDBLK
5
1D
100
AcDbEntity
100
AcDbBlockEnd
0
ENDSEC
0
SECTION
2
ENTITIES
0
LWPOLYLINE
5
100
100
AcDbEntity
8
0
100
AcDbPolyline
90
60
70
1
43
0.0
10
6.4999999999999956
20
85.5
10
1.4999999999999964
20
85.5
10
1.5000000000000036
20
96.000000000000014
10
127.50000000000001
20
96.000000000000014
10
127.50000000000001
20
85.5
10
122.50000000000003
20
85.5
10
122.50000000000001
20
87.250000000000014
10
119.50000000000004
20
87.250000000000014
10
119.50000000000004
20
85.5
10
116.00000000000003
20
85.5
10
116.00000000000003
20
82.5
10
119.50000000000004
20
82.500000000000014
10
119.50000000000004
20
80.750000000000014
10
122.50000000000003
20
80.750000000000014
10
122.50000000000001
20
82.5
10
127.50000000000001
20
82.5
10
127.50000000000001
20
60.999999999999986
10
130.50000000000003
20
60.999999999999986
10
130.50000000000003
20
48.999999999999993
10
127.50000000000001
20
48.999999999999993
10
127.50000000000001
20
27.500000000000007
10
122.50000000000003
20
27.500000000000007
10
122.50000000000001
20
29.25
10
119.50000000000003
20
29.25
10
119.50000000000003
20
27.500000000000007
10
116.00000000000001
20
27.500000000000007
10
116.00000000000003
20
24.5
10
119.50000000000003
20
24.5
10
119.50000000000003
20
22.749999999999993
10
122.50000000000001
20
22.749999999999993
10
122.50000000000001
20
24.5
10
127.50000000000001
20
24.500000000000011
10
127.5
20
11.000000000000007
10
1.499999999999992
20
11.000000000000014
10
1.4999999999999925
20
24.500000000000011
10
6.4999999999999929
20
24.500000000000011
10
6.4999999999999938
20
22.750000000000004
10
9.499999999999984
20
22.750000000000004
10
9.4999999999999893
20
24.500000000000011
10
12.999999999999998
20
24.500000000000011
10
12.999999999999996
20
27.500000000000018
10
9.499999999999984
20
27.500000000000018
10
9.4999999999999893
20
29.250000000000007
10
6.4999999999999929
20
29.250000000000007
10
6.4999999999999947
20
27.500000000000018
10
1.4999999999999927
20
27.500000000000018
10
1.4999999999999938
20
49.000000000000021
10
-1.5000000000000067
20
49.000000000000021
10
-1.5000000000000056
20
61.000000000000014
10
1.4999999999999771
20
61.000000000000014
10
1.4999999999999964
20
82.500000000000014
10
6.4999999999999956
20
82.500000000000014
10
6.4999999999999947
20
80.750000000000014
10
9.4999999999999947
20
80.750000000000014
10
9.4999999999999964
20
82.500000000000014
10
12.999999999999998
20
82.5
10
12.999999999999998
20
85.5
10
9.4999999999999964
20
85.5
10
9.4999999999999947
20
87.250000000000014
10
6.4999999999999956
20
87.250000000000014
0
LWPOLYLINE
5
101
100
AcDbEntity
8
0
100
AcDbPolyline
90
60
70
1
43
0.0
10
1.4999999999999971
20
96.000000000000014
10
1.4999999999999964
20
85.5
10
6.4999999999999956
20
85.5
10
6.4999999999999956
20
87.250000000000014
10
9.4999999999999947
20
87.250000000000014
10
9.4999999999999964
20
85.5
10
12.999999999999998
20
85.5
10
12.999999999999998
20
82.500000000000014
10
9.4999999999999947
20
82.500000000000014
10
9.4999999999999947
20
80.750000000000014
10
6.4999999999999947
20
80.750000000000014
10
6.4999999999999956
20
82.500000000000014
10
1.4999999999999964
20
82.500000000000014
10
1.4999999999999771
20
61.000000000000014
10
-1.5000000000000056
20
61.000000000000014
10
-1.500000000000006
20
49.000000000000021
10
1.4999999999999942
20
49.000000000000021
10
1.4999999999999925
20
27.500000000000018
10
6.4999999999999947
20
27.500000000000018
10
6.4999999999999938
20
29.250000000000014
10
9.4999999999999876
20
29.250000000000014
10
9.499999999999984
20
27.500000000000018
10
12.999999999999998
20
27.500000000000018
10
12.999999999999998
20
24.500000000000011
10
9.4999999999999876
20
24.500000000000011
10
9.499999999999984
20
22.750000000000014
10
6.4999999999999938
20
22.750000000000004
10
6.4999999999999929
20
24.500000000000011
10
1.4999999999999927
20
24.500000000000011
10
1.5000000000000036
20
11.000000000000021
10
127.50000000000001
20
11.000000000000014
10
127.50000000000001
20
24.5
10
122.50000000000001
20
24.5
10
122.50000000000001
20
22.749999999999993
10
119.50000000000003
20
22.749999999999993
10
119.50000000000003
20
24.5
10
116.00000000000003
20
24.5
10
116.00000000000001
20
27.500000000000018
10
119.50000000000003
20
27.500000000000018
10
119.50000000000003
20
29.250000000000007
10
122.50000000000001
20
29.250000000000007
10
122.50000000000003
20
27.500000000000018
10
127.50000000000001
20
27.500000000000028
10
127.50000000000001
20
48.999999999999993
10
130.50000000000003
20
48.999999999999993
10
130.50000000000003
20
60.999999999999986
10
127.50000000000001
20
61
10
127.50000000000001
20
82.5
10
122.50000000000001
20
82.5
10
122.50000000000003
20
80.750000000000014
10
119.50000000000004
20
80.75
10
119.50000000000004
20
82.5
10
116.00000000000003
20
82.5
10
116.00000000000003
20
85.5
10
119.50000000000004
20
85.5
10
119.50000000000004
20
87.250000000000014
10
122.50000000000001
20
87.250000000000014
10
122.50000000000003
20
85.5
10
127.50000000000001
20
85.5
10
127.50000000000001
20
96.000000000000014
0
ENDSEC
0
SECTION
2
OBJECTS
0
DICTIONARY
5
C
100
AcDbDictionary
3
ACAD_GROUP
350
D
3
ACAD_MLINESTYLE
350
17
0
DICTIONARY
5
D
100
AcDbDictionary
0
DICTIONARY
5
1A
330
C
100
AcDbDictionary
0
DICTIONARY
5
17
100
AcDbDictionary
0
ENDSEC
0
EOF
