0
SECTION
2
HEADER
9
$INSUNITS
70
4
9
$ACADVER
1
AC1014
9
$HANDSEED
5
FFFF
0
ENDSEC
0
SECTION
2
TABLES
0
TABLE
2
VPORT
5
8
100
AcDbSymbolTable
0
ENDTAB
0
TABLE
2
LTYPE
5
5
100
AcDbSymbolTable
0
LTYPE
5
14
100
AcDbSymbolTableRecord
100
AcDbLinetypeTableRecord
2
BYBLOCK
70
0
0
LTYPE
5
15
100
AcDbSymbolTableRecord
100
AcDbLinetypeTableRecord
2
BYLAYER
70
0
0
ENDTAB
0
TABLE
2
LAYER
5
2
100
AcDbSymbolTable
70
2
0
LAYER
5
50
100
AcDbSymbolTableRecord
100
AcDbLayerTableRecord
2
0
70
0
6
CONTINUOUS
0
ENDTAB
0
TABLE
2
STYLE
5
3
100
AcDbSymbolTable
70
1
0
STYLE
5
11
100
AcDbSymbolTableRecord
100
AcDbTextStyleTableRecord
2
STANDARD
70
0
0
ENDTAB
0
TABLE
2
VIEW
5
6
100
AcDbSymbolTable
70
0
0
ENDTAB
0
TABLE
2
UCS
5
7
100
AcDbSymbolTable
70
0
0
ENDTAB
0
TABLE
2
APPID
5
9
100
AcDbSymbolTable
70
2
0
APPID
5
12
100
AcDbSymbolTableRecord
100
AcDbRegAppTableRecord
2
ACAD
70
0
0
ENDTAB
0
TABLE
2
DIMSTYLE
5
A
100
AcDbSymbolTable
70
1
0
ENDTAB
0
TABLE
2
BLOCK_RECORD
5
1
100
AcDbSymbolTable
70
1
0
BLOCK_RECORD
5
1F
100
AcDbSymbolTableRecord
100
AcDbBlockTableRecord
2
*MODEL_SPACE
0
BLOCK_RECORD
5
1B
100
AcDbSymbolTableRecord
100
AcDbBlockTableRecord
2
*PAPER_SPACE
0
ENDTAB
0
ENDSEC
0
SECTION
2
BLOCKS
0
BLOCK
5
20
100
AcDbEntity
100
AcDbBlockBegin
2
*MODEL_SPACE
0
ENDBLK
5
21
100
AcDbEntity
100
AcDbBlockEnd
0
BLOCK
5
1C
100
AcDbEntity
100
AcDbBlockBegin
2
*PAPER_SPACE
0
ENDBLK
5
1D
100
AcDbEntity
100
AcDbBlockEnd
0
ENDSEC
0
SECTION
2
ENTITIES
0
LWPOLYLINE
5
100
100
AcDbEntity
8
0
100
AcDbPolyline
90
28
70
1
43
0.0
10
-73.500000059604659
20
10.000003814697251
10
-73.500000059604659
20
56.000003814697266
10
-105.50000005960467
20
56.000003814697273
10
-105.50000005960467
20
14.000003814697275
10
-127.50000005960466
20
14.000003814697264
10
-127.50000005960466
20
49.000003814697244
10
-130.50000005960467
20
49.000003814697244
10
-130.50000005960467
20
61.000003814697237
10
-127.50000005960466
20
61.000003814697251
10
-127.50000005960466
20
96.000003814697266
10
-75.500000059604645
20
96.000003814697266
10
-75.500000059604645
20
91.00000374019146
10
-53.500000059604659
20
91.00000374019146
10
-53.500000059604659
20
96.000003814697266
10
-1.5000000596046448
20
96.000003814697266
10
-1.500000059604625
20
61.000003814697266
10
1.4999999403953577
20
61.000003814697266
10
1.4999999403953583
20
49.000003814697273
10
-1.5000000596046421
20
49.000003814697273
10
-1.5000000596046226
20
14.000003814697275
10
-23.500000059604638
20
14.000003814697273
10
-23.500000059604645
20
56.000003814697273
10
-55.500000059604638
20
56.000003814697266
10
-55.500000059604638
20
10.000003814697251
10
-52.500000059604645
20
10.000003814697269
10
-52.500000059604645
20
7.000003814697263
10
-76.500000059604645
20
7.0000038146972621
10
-76.500000059604645
20
10.000003814697269
0
LWPOLYLINE
5
101
100
AcDbEntity
8
0
100
AcDbPolyline
90
28
70
1
43
0.0
10
-73.500000059604645
20
10.000003814697267
10
-76.500000059604645
20
10.000003814697267
10
-76.500000059604645
20
7.0000038146972621
10
-52.500000059604645
20
7.000003814697263
10
-52.500000059604645
20
10.000003814697269
10
-55.500000059604638
20
10.000003814697269
10
-55.500000059604638
20
56.000003814697266
10
-23.500000059604652
20
56.000003814697273
10
-23.500000059604638
20
14.000003814697273
10
-1.5000000596046206
20
14.000003814697282
10
-1.5000000596046421
20
49.000003814697273
10
1.4999999403953583
20
49.000003814697273
10
1.4999999403953579
20
61.000003814697266
10
-1.5000000596046248
20
61.000003814697266
10
-1.5000000596046448
20
96.000003814697266
10
-53.500000059604659
20
96.000003814697266
10
-53.500000059604659
20
91.00000374019146
10
-75.500000059604645
20
91.00000374019146
10
-75.500000059604645
20
96.000003814697266
10
-127.50000005960466
20
96.000003814697266
10
-127.50000005960466
20
61.000003814697251
10
-130.50000005960467
20
61.000003814697237
10
-130.50000005960467
20
49.000003814697244
10
-127.50000005960466
20
49.000003814697244
10
-127.50000005960466
20
14.000003814697273
10
-105.50000005960467
20
14.000003814697273
10
-105.50000005960467
20
56.000003814697266
10
-73.500000059604659
20
56.000003814697266
0
ENDSEC
0
SECTION
2
OBJECTS
0
DICTIONARY
5
C
100
AcDbDictionary
3
ACAD_GROUP
350
D
3
ACAD_MLINESTYLE
350
17
0
DICTIONARY
5
D
100
AcDbDictionary
0
DICTIONARY
5
1A
330
C
100
AcDbDictionary
0
DICTIONARY
5
17
100
AcDbDictionary
0
ENDSEC
0
EOF
