0
SECTION
2
HEADER
9
$INSUNITS
70
4
9
$ACADVER
1
AC1014
9
$HANDSEED
5
FFFF
0
ENDSEC
0
SECTION
2
TABLES
0
TABLE
2
VPORT
5
8
100
AcDbSymbolTable
0
ENDTAB
0
TABLE
2
LTYPE
5
5
100
AcDbSymbolTable
0
LTYPE
5
14
100
AcDbSymbolTableRecord
100
AcDbLinetypeTableRecord
2
BYBLOCK
70
0
0
LTYPE
5
15
100
AcDbSymbolTableRecord
100
AcDbLinetypeTableRecord
2
BYLAYER
70
0
0
ENDTAB
0
TABLE
2
LAYER
5
2
100
AcDbSymbolTable
70
2
0
LAYER
5
50
100
AcDbSymbolTableRecord
100
AcDbLayerTableRecord
2
0
70
0
6
CONTINUOUS
0
ENDTAB
0
TABLE
2
STYLE
5
3
100
AcDbSymbolTable
70
1
0
STYLE
5
11
100
AcDbSymbolTableRecord
100
AcDbTextStyleTableRecord
2
STANDARD
70
0
0
ENDTAB
0
TABLE
2
VIEW
5
6
100
AcDbSymbolTable
70
0
0
ENDTAB
0
TABLE
2
UCS
5
7
100
AcDbSymbolTable
70
0
0
ENDTAB
0
TABLE
2
APPID
5
9
100
AcDbSymbolTable
70
2
0
APPID
5
12
100
AcDbSymbolTableRecord
100
AcDbRegAppTableRecord
2
ACAD
70
0
0
ENDTAB
0
TABLE
2
DIMSTYLE
5
A
100
AcDbSymbolTable
70
1
0
ENDTAB
0
TABLE
2
BLOCK_RECORD
5
1
100
AcDbSymbolTable
70
1
0
BLOCK_RECORD
5
1F
100
AcDbSymbolTableRecord
100
AcDbBlockTableRecord
2
*MODEL_SPACE
0
BLOCK_RECORD
5
1B
100
AcDbSymbolTableRecord
100
AcDbBlockTableRecord
2
*PAPER_SPACE
0
ENDTAB
0
ENDSEC
0
SECTION
2
BLOCKS
0
BLOCK
5
20
100
AcDbEntity
100
AcDbBlockBegin
2
*MODEL_SPACE
0
ENDBLK
5
21
100
AcDbEntity
100
AcDbBlockEnd
0
BLOCK
5
1C
100
AcDbEntity
100
AcDbBlockBegin
2
*PAPER_SPACE
0
ENDBLK
5
1D
100
AcDbEntity
100
AcDbBlockEnd
0
ENDSEC
0
SECTION
2
ENTITIES
0
CIRCLE
5
100
100
AcDbEntity
8
0
100
AcDbCircle
10
-64.500000000000014
20
0.7499998658895457
30
0
40
7.9999999999999982
210
2.2958450216584675e-49
220
1.405799628556214e-65
230
1
0
LWPOLYLINE
5
101
100
AcDbEntity
8
0
100
AcDbPolyline
90
4
70
1
43
0.0
10
-13.000000000000025
20
-17.000000134110461
10
-116.00000000000003
20
-17.000000134110465
10
-116.00000000000001
20
-74.000000134110465
10
-13.000000000000007
20
-74.000000134110465
0
LWPOLYLINE
5
102
100
AcDbEntity
8
0
100
AcDbPolyline
90
24
70
1
43
0.0
10
1.5000000447034878
20
-72.000000000000014
10
-1.4999999999999958
20
-72.000000000000014
10
-1.4999999999999947
20
-81.000000134110465
10
-58.500000000000007
20
-81.000000134110465
10
-58.500000000000007
20
-78.000000134110479
10
-70.5
20
-78.000000134110465
10
-70.5
20
-81.000000134110465
10
-127.50000000000001
20
-81.000000134110479
10
-127.50000000000001
20
-72.000000000000014
10
-130.50000004470351
20
-72.000000000000014
10
-130.50000004470351
20
-60.000000000000014
10
-127.50000000000001
20
-60.000000000000014
10
-127.50000000000001
20
-6.0000002682208997
10
-130.50000004470351
20
-6.0000002682208908
10
-130.50000004470351
20
5.9999997317791021
10
-127.50000000000001
20
5.9999997317791021
10
-127.50000000000001
20
14.999999865889546
10
-1.5000000000000011
20
14.999999865889553
10
-1.5000000000000002
20
5.9999997317791021
10
1.5000000447034834
20
5.9999997317791021
10
1.500000044703484
20
-6.0000002682208908
10
-1.4999999999999996
20
-6.0000002682208908
10
-1.4999999999999964
20
-60.000000000000007
10
1.5000000000000018
20
-60.000000000000007
0
LWPOLYLINE
5
103
100
AcDbEntity
8
0
100
AcDbPolyline
90
4
70
1
43
0.0
10
-116.00000000000003
20
-17.000000134110465
10
-116.00000000000003
20
-74.000000134110465
10
-13.000000000000009
20
-74.000000134110465
10
-13.000000000000007
20
-17.000000134110458
0
CIRCLE
5
104
100
AcDbEntity
8
0
100
AcDbCircle
10
-64.500000000000014
20
0.7499998658895457
30
0
40
7.9999999999999982
210
0
220
-0
230
1
0
LWPOLYLINE
5
105
100
AcDbEntity
8
0
100
AcDbPolyline
90
24
70
1
43
0.0
10
-1.4999999999999951
20
-81.000000134110465
10
-1.4999999999999958
20
-72.000000000000014
10
1.5000000447034878
20
-72.000000000000014
10
1.500000000000004
20
-60.000000000000007
10
-1.4999999999999964
20
-60.000000000000007
10
-1.5
20
-6.0000002682208908
10
1.500000044703484
20
-6.0000002682208908
10
1.5000000447034827
20
5.9999997317791021
10
-1.5000000000000004
20
5.9999997317791021
10
-1.5000000000000036
20
14.99999986588956
10
-127.50000000000001
20
14.999999865889553
10
-127.50000000000001
20
5.9999997317791021
10
-130.50000004470351
20
5.9999997317790932
10
-130.50000004470351
20
-6.0000002682208997
10
-127.50000000000001
20
-6.0000002682208908
10
-127.50000000000001
20
-60.000000000000014
10
-130.50000004470351
20
-60.000000000000014
10
-130.50000004470351
20
-72.000000000000014
10
-127.50000000000001
20
-72.000000000000014
10
-127.5
20
-81.000000134110465
10
-70.5
20
-81.000000134110465
10
-70.5
20
-78.000000134110465
10
-58.500000000000007
20
-78.000000134110465
10
-58.500000000000007
20
-81.000000134110465
0
ENDSEC
0
SECTION
2
OBJECTS
0
DICTIONARY
5
C
100
AcDbDictionary
3
ACAD_GROUP
350
D
3
ACAD_MLINESTYLE
350
17
0
DICTIONARY
5
D
100
AcDbDictionary
0
DICTIONARY
5
1A
330
C
100
AcDbDictionary
0
DICTIONARY
5
17
100
AcDbDictionary
0
ENDSEC
0
EOF
